<svg width="42" height="42" viewBox="0 0 42 42" fill="none" xmlns="http://www.w3.org/2000/svg">
<path fill-rule="evenodd" clip-rule="evenodd" d="M35.4422 12.5482C38.6838 12.5482 41.3117 9.92034 41.3117 6.6787C41.3117 3.43707 38.6838 0.809204 35.4422 0.809204C32.2006 0.809204 29.5727 3.43707 29.5727 6.6787C29.5727 9.92034 32.2006 12.5482 35.4422 12.5482Z" fill="#8055FA"/>
<path fill-rule="evenodd" clip-rule="evenodd" d="M35.442 26.631C38.6836 26.631 41.3115 24.0035 41.3115 20.7623C41.3115 17.5211 38.6836 14.8936 35.442 14.8936C32.2004 14.8936 29.5725 17.5211 29.5725 20.7623C29.5725 24.0035 32.2004 26.631 35.442 26.631Z" fill="#7550FB"/>
<path fill-rule="evenodd" clip-rule="evenodd" d="M35.442 41.2392C38.6836 41.2392 41.3115 38.6113 41.3115 35.3697C41.3115 32.128 38.6836 29.5002 35.442 29.5002C32.2004 29.5002 29.5725 32.128 29.5725 35.3697C29.5725 38.6113 32.2004 41.2392 35.442 41.2392Z" fill="#6A4AFC"/>
<path d="M20.8347 26.6308C24.0759 26.6308 26.7034 24.0033 26.7034 20.7621C26.7034 17.5209 24.0759 14.8934 20.8347 14.8934C17.5935 14.8934 14.966 17.5209 14.966 20.7621C14.966 24.0033 17.5935 26.6308 20.8347 26.6308Z" fill="#6045FD"/>
<path d="M20.8347 26.6308C24.0759 26.6308 26.7034 24.0033 26.7034 20.7621C26.7034 17.5209 24.0759 14.8934 20.8347 14.8934C17.5935 14.8934 14.966 17.5209 14.966 20.7621C14.966 24.0033 17.5935 26.6308 20.8347 26.6308Z" stroke="#F7F7FB"/>
<path fill-rule="evenodd" clip-rule="evenodd" d="M20.834 41.2391C24.0752 41.2391 26.7027 38.6113 26.7027 35.3696C26.7027 32.128 24.0752 29.5001 20.834 29.5001C17.5928 29.5001 14.9653 32.128 14.9653 35.3696C14.9653 38.6113 17.5928 41.2391 20.834 41.2391Z" fill="#553FFE"/>
<path fill-rule="evenodd" clip-rule="evenodd" d="M6.75036 41.2391C9.99199 41.2391 12.6199 38.6113 12.6199 35.3696C12.6199 32.128 9.99199 29.5001 6.75036 29.5001C3.50872 29.5001 0.880859 32.128 0.880859 35.3696C0.880859 38.6113 3.50872 41.2391 6.75036 41.2391Z" fill="#4A3AFF"/>
</svg>
